<?xml version="1.0" encoding="UTF-8" standalone="no"?>
<svg xmlns="http://www.w3.org/2000/svg" viewBox="0 0 128 128" width="128" height="128" shape-rendering="crispEdges">
<circle cx="64.00" cy="64.00" r="18.43" fill="#ddeeff"/><polygon points="77.82,64.00 82.23,66.75 110.08,64.00 82.23,61.25" fill="#aaddff" stroke="#7799bb" stroke-width="0.50"/><polygon points="75.97,70.91 78.41,75.50 103.91,87.04 81.16,70.73" fill="#aaddff" stroke="#7799bb" stroke-width="0.50"/><polygon points="70.91,75.97 70.73,81.16 87.04,103.91 75.50,78.41" fill="#aaddff" stroke="#7799bb" stroke-width="0.50"/><polygon points="64.00,77.82 61.25,82.23 64.00,110.08 66.75,82.23" fill="#aaddff" stroke="#7799bb" stroke-width="0.50"/><polygon points="57.09,75.97 52.50,78.41 40.96,103.91 57.27,81.16" fill="#aaddff" stroke="#7799bb" stroke-width="0.50"/><polygon points="52.03,70.91 46.84,70.73 24.09,87.04 49.59,75.50" fill="#aaddff" stroke="#7799bb" stroke-width="0.50"/><polygon points="50.18,64.00 45.77,61.25 17.92,64.00 45.77,66.75" fill="#aaddff" stroke="#7799bb" stroke-width="0.50"/><polygon points="52.03,57.09 49.59,52.50 24.09,40.96 46.84,57.27" fill="#aaddff" stroke="#7799bb" stroke-width="0.50"/><polygon points="57.09,52.03 57.27,46.84 40.96,24.09 52.50,49.59" fill="#aaddff" stroke="#7799bb" stroke-width="0.50"/><polygon points="64.00,50.18 66.75,45.78 64.00,17.92 61.25,45.77" fill="#aaddff" stroke="#7799bb" stroke-width="0.50"/><polygon points="70.91,52.03 75.50,49.59 87.04,24.09 70.73,46.84" fill="#aaddff" stroke="#7799bb" stroke-width="0.50"/><polygon points="75.97,57.09 81.16,57.27 103.91,40.96 78.41,52.50" fill="#aaddff" stroke="#7799bb" stroke-width="0.50"/><circle cx="76.29" cy="71.48" r="0.51" fill="#FFFFFF"/><circle cx="69.52" cy="80.59" r="0.73" fill="#FFFFFF"/><circle cx="64.72" cy="77.78" r="0.86" fill="#FFFFFF"/><circle cx="102.20" cy="104.01" r="1.21" fill="#FFFFFF"/><circle cx="39.35" cy="70.89" r="1.37" fill="#FFFFFF"/><circle cx="35.51" cy="81.05" r="1.05" fill="#FFFFFF"/><circle cx="71.48" cy="77.15" r="0.60" fill="#FFFFFF"/><circle cx="90.23" cy="45.74" r="1.31" fill="#FFFFFF"/><circle cx="35.83" cy="62.82" r="1.36" fill="#FFFFFF"/><circle cx="88.05" cy="37.32" r="0.60" fill="#FFFFFF"/></svg>
