<?xml version="1.0" encoding="UTF-8" standalone="no"?>
<svg xmlns="http://www.w3.org/2000/svg" viewBox="0 0 1024 1024" width="1024" height="1024" shape-rendering="crispEdges">
<rect x="0.00" y="0.00" width="1024.00" height="102.40" fill="#d0c097"/><rect x="0.00" y="102.40" width="1024.00" height="102.40" fill="#c2b38d"/><rect x="0.00" y="204.80" width="1024.00" height="102.40" fill="#b4a683"/><rect x="0.00" y="307.20" width="1024.00" height="102.40" fill="#a79a78"/><rect x="0.00" y="409.60" width="1024.00" height="102.40" fill="#998d6e"/><rect x="0.00" y="512.00" width="1024.00" height="102.40" fill="#302118"/><rect x="0.00" y="614.40" width="1024.00" height="102.40" fill="#2d1f16"/><rect x="0.00" y="716.80" width="1024.00" height="102.40" fill="#2a1d15"/><rect x="0.00" y="819.20" width="1024.00" height="102.40" fill="#271b13"/><rect x="0.00" y="921.60" width="1024.00" height="102.40" fill="#241912"/><circle cx="204.80" cy="184.32" r="61.44" fill="#FFAA66"/><circle cx="234.09" cy="542.30" r="0.84" fill="#FFE0AA"/><circle cx="830.69" cy="483.53" r="0.68" fill="#FFE0AA"/><circle cx="574.05" cy="430.50" r="0.51" fill="#FFE0AA"/><circle cx="15.61" cy="494.84" r="1.74" fill="#FFE0AA"/><circle cx="126.95" cy="517.67" r="1.16" fill="#FFE0AA"/><circle cx="497.26" cy="498.30" r="1.44" fill="#FFE0AA"/><circle cx="936.04" cy="478.36" r="1.77" fill="#FFE0AA"/><circle cx="560.89" cy="308.44" r="0.66" fill="#FFE0AA"/><circle cx="488.88" cy="516.92" r="1.58" fill="#FFE0AA"/><circle cx="466.10" cy="311.52" r="1.27" fill="#FFE0AA"/><circle cx="18.33" cy="329.39" r="0.89" fill="#FFE0AA"/><circle cx="572.61" cy="521.39" r="0.61" fill="#FFE0AA"/><circle cx="325.27" cy="384.65" r="0.65" fill="#FFE0AA"/><circle cx="386.88" cy="539.16" r="1.45" fill="#FFE0AA"/><circle cx="468.64" cy="463.24" r="0.54" fill="#FFE0AA"/><circle cx="49.25" cy="375.81" r="0.67" fill="#FFE0AA"/><circle cx="38.49" cy="317.39" r="0.79" fill="#FFE0AA"/><circle cx="6.59" cy="377.14" r="1.69" fill="#FFE0AA"/><circle cx="7.14" cy="562.51" r="1.77" fill="#FFE0AA"/><circle cx="424.90" cy="467.76" r="0.71" fill="#FFE0AA"/><circle cx="584.71" cy="531.56" r="1.34" fill="#FFE0AA"/><circle cx="874.64" cy="392.39" r="1.47" fill="#FFE0AA"/><circle cx="691.74" cy="454.87" r="1.93" fill="#FFE0AA"/><circle cx="217.04" cy="327.76" r="0.85" fill="#FFE0AA"/><circle cx="962.40" cy="458.56" r="1.18" fill="#FFE0AA"/><circle cx="930.26" cy="381.95" r="1.18" fill="#FFE0AA"/><circle cx="336.22" cy="444.02" r="0.60" fill="#FFE0AA"/><circle cx="197.73" cy="379.17" r="1.20" fill="#FFE0AA"/><circle cx="206.52" cy="512.54" r="1.84" fill="#FFE0AA"/><circle cx="530.44" cy="501.29" r="0.94" fill="#FFE0AA"/><circle cx="515.21" cy="348.01" r="1.01" fill="#FFE0AA"/><circle cx="218.94" cy="484.61" r="1.17" fill="#FFE0AA"/><circle cx="724.46" cy="327.78" r="1.27" fill="#FFE0AA"/><circle cx="992.39" cy="475.67" r="1.85" fill="#FFE0AA"/><circle cx="775.09" cy="505.51" r="1.05" fill="#FFE0AA"/><circle cx="739.95" cy="321.57" r="1.71" fill="#FFE0AA"/><circle cx="701.90" cy="455.58" r="0.54" fill="#FFE0AA"/><circle cx="662.59" cy="386.97" r="1.76" fill="#FFE0AA"/><circle cx="288.57" cy="459.05" r="0.74" fill="#FFE0AA"/><circle cx="864.99" cy="352.55" r="0.63" fill="#FFE0AA"/><polygon points="0.00,563.20 128.00,549.44 256.00,570.37 384.00,530.34 512.00,603.05 640.00,566.90 768.00,509.95 896.00,541.05 1024.00,568.02 1024.00,563.20 1024.00,665.60 0.00,665.60" fill="#090503"/><polygon points="163.84,563.20 204.80,471.81 245.76,563.20" fill="#0a0604"/><rect x="174.08" y="512.77" width="12.29" height="12.29" fill="#ff9966"/><polygon points="471.04,563.20 512.00,424.22 552.96,563.20" fill="#0a0604"/><rect x="481.28" y="465.18" width="12.29" height="12.29" fill="#ff9966"/><polygon points="778.24,563.20 819.20,461.05 860.16,563.20" fill="#0a0604"/><rect x="788.48" y="502.01" width="12.29" height="12.29" fill="#ff9966"/><rect x="0.00" y="798.72" width="1024.00" height="225.28" fill="#080403"/><rect x="163.84" y="716.80" width="40.96" height="40.96" fill="#0a0604"/><circle cx="184.32" cy="696.32" r="12.29" fill="#050302"/><rect x="153.60" y="757.76" width="20.48" height="51.20" fill="#0a0604"/><rect x="194.56" y="757.76" width="20.48" height="51.20" fill="#0a0604"/><rect x="471.04" y="716.80" width="40.96" height="40.96" fill="#0a0604"/><circle cx="491.52" cy="696.32" r="12.29" fill="#050302"/><rect x="460.80" y="757.76" width="20.48" height="51.20" fill="#0a0604"/><rect x="501.76" y="757.76" width="20.48" height="51.20" fill="#0a0604"/><rect x="778.24" y="716.80" width="40.96" height="40.96" fill="#0a0604"/><circle cx="798.72" cy="696.32" r="12.29" fill="#050302"/><rect x="768.00" y="757.76" width="20.48" height="51.20" fill="#0a0604"/><rect x="808.96" y="757.76" width="20.48" height="51.20" fill="#0a0604"/><rect x="40.96" y="942.08" width="942.08" height="40.96" fill="none" stroke="#a01818" stroke-width="1.00"/></svg>
