<?xml version="1.0" encoding="UTF-8" standalone="no"?>
<svg xmlns="http://www.w3.org/2000/svg" viewBox="0 0 1280 1280" width="1280" height="1280" shape-rendering="crispEdges">
<rect x="0.00" y="0.00" width="1280.00" height="128.00" fill="#96c2f2"/><rect x="0.00" y="128.00" width="1280.00" height="128.00" fill="#8cb6e2"/><rect x="0.00" y="256.00" width="1280.00" height="128.00" fill="#83aad3"/><rect x="0.00" y="384.00" width="1280.00" height="128.00" fill="#799dc4"/><rect x="0.00" y="512.00" width="1280.00" height="128.00" fill="#7091b5"/><rect x="0.00" y="640.00" width="1280.00" height="128.00" fill="#191e2b"/><rect x="0.00" y="768.00" width="1280.00" height="128.00" fill="#161b27"/><rect x="0.00" y="896.00" width="1280.00" height="128.00" fill="#141923"/><rect x="0.00" y="1024.00" width="1280.00" height="128.00" fill="#12161f"/><rect x="0.00" y="1152.00" width="1280.00" height="128.00" fill="#10131b"/><line x1="640.00" y1="384.00" x2="1907.72" y2="-483.29" stroke="#2e70cc" stroke-width="0.50"/><line x1="640.00" y1="384.00" x2="2023.09" y2="-284.11" stroke="#2e70cc" stroke-width="0.50"/><line x1="640.00" y1="384.00" x2="2107.40" y2="-69.92" stroke="#2e70cc" stroke-width="0.50"/><line x1="640.00" y1="384.00" x2="2158.75" y2="154.46" stroke="#2e70cc" stroke-width="0.50"/><line x1="640.00" y1="384.00" x2="2176.00" y2="384.00" stroke="#2e70cc" stroke-width="0.50"/><line x1="640.00" y1="384.00" x2="2158.75" y2="613.54" stroke="#2e70cc" stroke-width="0.50"/><line x1="640.00" y1="384.00" x2="2107.40" y2="837.92" stroke="#2e70cc" stroke-width="0.50"/><line x1="640.00" y1="384.00" x2="2023.09" y2="1052.11" stroke="#2e70cc" stroke-width="0.50"/><polygon points="0.00,793.60 128.00,699.58 256.00,729.85 384.00,798.15 512.00,675.67 640.00,768.33 768.00,724.49 896.00,825.07 1024.00,731.68 1152.00,804.43 1280.00,706.55 1280.00,793.60 1280.00,921.60 0.00,921.60" fill="#03060a"/><rect x="217.60" y="608.30" width="76.80" height="185.30" fill="#04070c"/><rect x="236.80" y="646.70" width="15.36" height="15.36" fill="#c0e8ff"/><rect x="259.84" y="646.70" width="15.36" height="15.36" fill="#c0e8ff"/><rect x="236.80" y="678.70" width="15.36" height="15.36" fill="#c0e8ff"/><rect x="259.84" y="678.70" width="15.36" height="15.36" fill="#c0e8ff"/><rect x="236.80" y="710.70" width="15.36" height="15.36" fill="#c0e8ff"/><rect x="259.84" y="710.70" width="15.36" height="15.36" fill="#c0e8ff"/><rect x="236.80" y="742.70" width="15.36" height="15.36" fill="#c0e8ff"/><rect x="259.84" y="742.70" width="15.36" height="15.36" fill="#c0e8ff"/><rect x="473.60" y="589.08" width="76.80" height="204.52" fill="#04070c"/><rect x="492.80" y="627.48" width="15.36" height="15.36" fill="#c0e8ff"/><rect x="515.84" y="627.48" width="15.36" height="15.36" fill="#c0e8ff"/><rect x="492.80" y="659.48" width="15.36" height="15.36" fill="#c0e8ff"/><rect x="515.84" y="659.48" width="15.36" height="15.36" fill="#c0e8ff"/><rect x="492.80" y="691.48" width="15.36" height="15.36" fill="#c0e8ff"/><rect x="515.84" y="691.48" width="15.36" height="15.36" fill="#c0e8ff"/><rect x="492.80" y="723.48" width="15.36" height="15.36" fill="#c0e8ff"/><rect x="515.84" y="723.48" width="15.36" height="15.36" fill="#c0e8ff"/><rect x="729.60" y="577.62" width="76.80" height="215.98" fill="#04070c"/><rect x="748.80" y="616.02" width="15.36" height="15.36" fill="#c0e8ff"/><rect x="771.84" y="616.02" width="15.36" height="15.36" fill="#c0e8ff"/><rect x="748.80" y="648.02" width="15.36" height="15.36" fill="#c0e8ff"/><rect x="771.84" y="648.02" width="15.36" height="15.36" fill="#c0e8ff"/><rect x="748.80" y="680.02" width="15.36" height="15.36" fill="#c0e8ff"/><rect x="771.84" y="680.02" width="15.36" height="15.36" fill="#c0e8ff"/><rect x="748.80" y="712.02" width="15.36" height="15.36" fill="#c0e8ff"/><rect x="771.84" y="712.02" width="15.36" height="15.36" fill="#c0e8ff"/><rect x="985.60" y="641.86" width="76.80" height="151.74" fill="#04070c"/><rect x="1004.80" y="680.26" width="15.36" height="15.36" fill="#c0e8ff"/><rect x="1027.84" y="680.26" width="15.36" height="15.36" fill="#c0e8ff"/><rect x="1004.80" y="712.26" width="15.36" height="15.36" fill="#c0e8ff"/><rect x="1027.84" y="712.26" width="15.36" height="15.36" fill="#c0e8ff"/><rect x="1004.80" y="744.26" width="15.36" height="15.36" fill="#c0e8ff"/><rect x="1027.84" y="744.26" width="15.36" height="15.36" fill="#c0e8ff"/><rect x="1004.80" y="776.26" width="15.36" height="15.36" fill="#c0e8ff"/><rect x="1027.84" y="776.26" width="15.36" height="15.36" fill="#c0e8ff"/><circle cx="384.00" cy="716.80" r="38.40" fill="#04070c"/><circle cx="384.00" cy="716.80" r="32.00" fill="#253449" stroke="#04070c" stroke-width="0.50"/><rect x="368.00" y="713.60" width="32.00" height="12.80" fill="#3a8cff"/><rect x="358.40" y="768.00" width="51.20" height="153.60" fill="#1c2230" stroke="#04070c" stroke-width="0.80"/><polygon points="358.40,768.00 343.04,755.20 348.16,793.60" fill="#2a3a52" stroke="#04070c" stroke-width="0.50"/><rect x="414.72" y="780.80" width="89.60" height="25.60" fill="#212e41" stroke="#04070c" stroke-width="0.50"/><rect x="363.52" y="921.60" width="15.36" height="102.40" fill="#131721" stroke="#04070c" stroke-width="0.50"/><rect x="389.12" y="921.60" width="15.36" height="102.40" fill="#131721" stroke="#04070c" stroke-width="0.50"/><circle cx="640.00" cy="596.48" r="49.92" fill="#04070c"/><circle cx="640.00" cy="596.48" r="41.60" fill="#253449" stroke="#04070c" stroke-width="0.50"/><rect x="619.20" y="592.32" width="41.60" height="16.64" fill="#3a8cff"/><rect x="606.72" y="663.04" width="66.56" height="199.68" fill="#1c2230" stroke="#04070c" stroke-width="0.80"/><polygon points="606.72,663.04 586.75,646.40 593.41,696.32" fill="#2a3a52" stroke="#04070c" stroke-width="0.50"/><rect x="679.94" y="679.68" width="116.48" height="33.28" fill="#212e41" stroke="#04070c" stroke-width="0.50"/><rect x="613.38" y="862.72" width="19.97" height="133.12" fill="#131721" stroke="#04070c" stroke-width="0.50"/><rect x="646.66" y="862.72" width="19.97" height="133.12" fill="#131721" stroke="#04070c" stroke-width="0.50"/><circle cx="896.00" cy="716.80" r="38.40" fill="#04070c"/><circle cx="896.00" cy="716.80" r="32.00" fill="#253449" stroke="#04070c" stroke-width="0.50"/><rect x="880.00" y="713.60" width="32.00" height="12.80" fill="#3a8cff"/><rect x="870.40" y="768.00" width="51.20" height="153.60" fill="#1c2230" stroke="#04070c" stroke-width="0.80"/><polygon points="870.40,768.00 855.04,755.20 860.16,793.60" fill="#2a3a52" stroke="#04070c" stroke-width="0.50"/><rect x="926.72" y="780.80" width="89.60" height="25.60" fill="#212e41" stroke="#04070c" stroke-width="0.50"/><rect x="875.52" y="921.60" width="15.36" height="102.40" fill="#131721" stroke="#04070c" stroke-width="0.50"/><rect x="901.12" y="921.60" width="15.36" height="102.40" fill="#131721" stroke="#04070c" stroke-width="0.50"/><rect x="51.20" y="51.20" width="128.00" height="76.80" fill="#1c2230" stroke="#3a8cff" stroke-width="1.00"/><circle cx="115.20" cy="89.60" r="25.60" fill="#3a8cff" stroke="#04070c" stroke-width="0.50"/><rect x="256.00" y="76.80" width="768.00" height="76.80" fill="#1c2230" stroke="#3a8cff" stroke-width="1.00"/><rect x="281.60" y="96.00" width="716.80" height="38.40" fill="#3a8cff"/><rect x="128.00" y="1126.40" width="1024.00" height="76.80" fill="#1c2230" stroke="#3a8cff" stroke-width="1.00"/><rect x="153.60" y="1152.00" width="972.80" height="32.00" fill="#3a8cff"/></svg>
