<?xml version="1.0" encoding="UTF-8" standalone="no"?>
<svg xmlns="http://www.w3.org/2000/svg" viewBox="0 0 256 256" width="256" height="256" shape-rendering="crispEdges">
<rect x="10.24" y="10.24" width="235.52" height="235.52" fill="#e6f2f4" stroke="#1e2a32" stroke-width="3.07"/><circle cx="235.52" cy="128.00" r="2.56" fill="#1aa6c9"/><circle cx="204.03" cy="204.03" r="2.56" fill="#1aa6c9"/><circle cx="128.00" cy="235.52" r="2.56" fill="#1aa6c9"/><circle cx="51.97" cy="204.03" r="2.56" fill="#1aa6c9"/><circle cx="20.48" cy="128.00" r="2.56" fill="#1aa6c9"/><circle cx="51.97" cy="51.97" r="2.56" fill="#1aa6c9"/><circle cx="128.00" cy="20.48" r="2.56" fill="#1aa6c9"/><circle cx="204.03" cy="51.97" r="2.56" fill="#1aa6c9"/><polygon points="66.56,51.20 189.44,51.20 179.20,153.60 128.00,209.92 76.80,153.60" fill="#1e2a32" stroke="#1aa6c9" stroke-width="3.07"/><polygon points="76.80,61.44 179.20,61.44 174.08,148.48 128.00,199.68 81.92,148.48" fill="#1aa6c9" stroke="#1e2a32" stroke-width="1.00"/><circle cx="128.00" cy="117.76" r="25.60" fill="#e0fcff" stroke="#1e2a32" stroke-width="1.00"/><circle cx="128.00" cy="117.76" r="15.36" fill="#9bf3ff"/><polygon points="51.20,215.04 204.80,215.04 194.56,230.40 128.00,220.16 61.44,230.40" fill="#1aa6c9" stroke="#1e2a32" stroke-width="1.00"/></svg>
