<?xml version="1.0" encoding="UTF-8" standalone="no"?>
<svg xmlns="http://www.w3.org/2000/svg" viewBox="0 0 512 512" width="512" height="512" shape-rendering="crispEdges">
<rect x="0.00" y="0.00" width="512.00" height="19.20" fill="#f0f7f8"/><rect x="0.00" y="19.20" width="512.00" height="19.20" fill="#eef6f7"/><rect x="0.00" y="38.40" width="512.00" height="19.20" fill="#edf5f7"/><rect x="0.00" y="57.60" width="512.00" height="19.20" fill="#ecf5f6"/><rect x="0.00" y="76.80" width="512.00" height="19.20" fill="#ebf4f6"/><rect x="0.00" y="96.00" width="512.00" height="19.20" fill="#e9f3f5"/><rect x="0.00" y="115.20" width="512.00" height="19.20" fill="#e8f3f5"/><rect x="0.00" y="134.40" width="512.00" height="19.20" fill="#e7f2f4"/><circle cx="196.80" cy="75.62" r="0.60" fill="#9bf3ff"/><circle cx="161.46" cy="128.75" r="0.75" fill="#9bf3ff"/><circle cx="349.18" cy="44.06" r="0.67" fill="#9bf3ff"/><circle cx="254.45" cy="131.90" r="1.30" fill="#9bf3ff"/><circle cx="392.53" cy="96.25" r="1.18" fill="#9bf3ff"/><circle cx="125.61" cy="124.12" r="0.91" fill="#9bf3ff"/><circle cx="295.69" cy="13.01" r="1.39" fill="#9bf3ff"/><circle cx="265.32" cy="88.21" r="1.16" fill="#9bf3ff"/><circle cx="443.99" cy="14.63" r="0.68" fill="#9bf3ff"/><circle cx="64.39" cy="56.05" r="0.58" fill="#9bf3ff"/><circle cx="374.29" cy="79.19" r="1.34" fill="#9bf3ff"/><circle cx="6.74" cy="108.39" r="1.27" fill="#9bf3ff"/><circle cx="211.11" cy="39.03" r="1.04" fill="#9bf3ff"/><circle cx="62.96" cy="122.88" r="1.46" fill="#9bf3ff"/><circle cx="340.53" cy="6.18" r="1.27" fill="#9bf3ff"/><circle cx="309.37" cy="122.28" r="0.93" fill="#9bf3ff"/><circle cx="98.11" cy="2.04" r="0.74" fill="#9bf3ff"/><circle cx="102.87" cy="52.15" r="0.93" fill="#9bf3ff"/><circle cx="135.82" cy="138.14" r="1.41" fill="#9bf3ff"/><circle cx="337.31" cy="116.59" r="0.52" fill="#9bf3ff"/><circle cx="148.65" cy="78.41" r="1.48" fill="#9bf3ff"/><circle cx="314.50" cy="27.91" r="1.07" fill="#9bf3ff"/><circle cx="322.73" cy="39.06" r="0.93" fill="#9bf3ff"/><circle cx="199.28" cy="102.29" r="1.46" fill="#9bf3ff"/><circle cx="390.65" cy="133.44" r="0.71" fill="#9bf3ff"/><circle cx="257.00" cy="21.40" r="1.20" fill="#9bf3ff"/><circle cx="245.81" cy="115.64" r="1.27" fill="#9bf3ff"/><circle cx="486.24" cy="51.05" r="1.36" fill="#9bf3ff"/><circle cx="311.99" cy="32.62" r="0.51" fill="#9bf3ff"/><circle cx="35.04" cy="87.84" r="0.62" fill="#9bf3ff"/><circle cx="489.26" cy="101.38" r="0.80" fill="#9bf3ff"/><circle cx="61.70" cy="103.51" r="0.92" fill="#9bf3ff"/><circle cx="325.60" cy="56.42" r="0.72" fill="#9bf3ff"/><circle cx="202.53" cy="95.50" r="1.00" fill="#9bf3ff"/><circle cx="5.68" cy="107.03" r="1.03" fill="#9bf3ff"/><circle cx="379.23" cy="44.51" r="1.23" fill="#9bf3ff"/><circle cx="173.96" cy="1.01" r="1.44" fill="#9bf3ff"/><circle cx="385.42" cy="21.79" r="1.40" fill="#9bf3ff"/><circle cx="115.65" cy="105.52" r="1.30" fill="#9bf3ff"/><circle cx="367.94" cy="43.97" r="1.49" fill="#9bf3ff"/><rect x="0.00" y="153.60" width="512.00" height="153.60" fill="#a1a9aa"/><polygon points="0.00,307.20 36.57,247.56 109.71,262.82 182.86,233.49 256.00,243.60 329.14,236.81 402.29,219.80 475.43,202.98 512.00,307.20 512.00,460.80 0.00,460.80" fill="#1e2a32" stroke="#1aa6c9" stroke-width="1.00"/><polygon points="0.00,512.00 51.20,329.90 153.60,413.36 256.00,412.05 358.40,329.80 460.80,347.89 512.00,512.00" fill="#1b252d"/><rect x="76.80" y="435.20" width="358.40" height="20.48" fill="#1e2a32" stroke="#1aa6c9" stroke-width="1.50"/><rect x="102.40" y="394.24" width="307.20" height="30.72" fill="none" stroke="#1aa6c9" stroke-width="1.00"/><rect x="0.00" y="151.60" width="512.00" height="4.00" fill="#1aa6c9"/></svg>
