<?xml version="1.0" encoding="UTF-8" standalone="no"?>
<svg xmlns="http://www.w3.org/2000/svg" viewBox="0 0 64 64" width="64" height="64" shape-rendering="crispEdges">
<rect x="0.00" y="0.00" width="64.00" height="64.00" fill="#8b6914"/><circle cx="45.41" cy="61.93" r="1.56" fill="#6f5410"/><circle cx="9.41" cy="36.14" r="1.62" fill="#6f5410"/><circle cx="62.91" cy="49.43" r="1.05" fill="#6f5410"/><circle cx="50.63" cy="28.52" r="1.61" fill="#6f5410"/><circle cx="38.20" cy="24.33" r="1.39" fill="#6f5410"/><circle cx="5.66" cy="42.18" r="1.13" fill="#6f5410"/><circle cx="51.52" cy="47.33" r="1.73" fill="#6f5410"/><circle cx="41.17" cy="56.15" r="2.08" fill="#6f5410"/><circle cx="12.75" cy="55.04" r="2.17" fill="#6f5410"/><circle cx="15.18" cy="56.83" r="1.85" fill="#6f5410"/><circle cx="56.78" cy="21.86" r="0.90" fill="#6f5410"/><circle cx="10.02" cy="11.80" r="1.90" fill="#6f5410"/><circle cx="15.74" cy="59.56" r="2.00" fill="#6f5410"/><circle cx="54.31" cy="23.86" r="1.08" fill="#6f5410"/><circle cx="59.45" cy="19.11" r="1.15" fill="#6f5410"/><circle cx="56.66" cy="47.38" r="1.99" fill="#6f5410"/><circle cx="49.98" cy="63.50" r="1.91" fill="#6f5410"/><circle cx="40.33" cy="48.04" r="1.40" fill="#6f5410"/><circle cx="45.51" cy="39.12" r="1.92" fill="#6f5410"/><circle cx="20.06" cy="29.01" r="1.53" fill="#6f5410"/><circle cx="14.86" cy="9.71" r="1.81" fill="#6f5410"/><circle cx="11.00" cy="15.54" r="0.88" fill="#6f5410"/><circle cx="55.58" cy="21.36" r="2.06" fill="#6f5410"/><circle cx="2.49" cy="52.76" r="1.51" fill="#6f5410"/><circle cx="47.31" cy="28.07" r="1.48" fill="#6f5410"/><circle cx="42.43" cy="5.67" r="0.96" fill="#6f5410"/><circle cx="28.78" cy="0.19" r="1.29" fill="#6f5410"/><circle cx="24.04" cy="18.58" r="1.47" fill="#6f5410"/><circle cx="33.01" cy="52.61" r="1.47" fill="#6f5410"/><circle cx="62.03" cy="62.05" r="1.78" fill="#6f5410"/><circle cx="33.54" cy="16.74" r="0.95" fill="#6f5410"/><circle cx="39.99" cy="10.80" r="1.65" fill="#6f5410"/><circle cx="31.34" cy="0.85" r="1.96" fill="#6f5410"/><circle cx="20.05" cy="62.75" r="0.95" fill="#6f5410"/><circle cx="30.52" cy="23.99" r="1.74" fill="#6f5410"/><circle cx="6.41" cy="49.59" r="0.90" fill="#6f5410"/><circle cx="36.41" cy="39.04" r="2.11" fill="#6f5410"/><circle cx="39.14" cy="6.17" r="1.39" fill="#6f5410"/><circle cx="38.72" cy="10.95" r="2.04" fill="#6f5410"/><circle cx="19.20" cy="34.26" r="1.32" fill="#6f5410"/><circle cx="6.93" cy="26.23" r="1.09" fill="#6f5410"/><circle cx="21.17" cy="32.93" r="1.77" fill="#6f5410"/><circle cx="30.10" cy="37.78" r="1.91" fill="#6f5410"/><circle cx="20.45" cy="30.88" r="0.87" fill="#6f5410"/><circle cx="0.18" cy="42.57" r="1.70" fill="#6f5410"/><circle cx="25.78" cy="31.54" r="2.16" fill="#6f5410"/><circle cx="58.08" cy="22.78" r="0.81" fill="#6f5410"/><circle cx="8.23" cy="54.10" r="1.26" fill="#6f5410"/><circle cx="34.02" cy="20.93" r="1.09" fill="#6f5410"/><circle cx="52.11" cy="29.51" r="1.66" fill="#6f5410"/><circle cx="28.60" cy="28.45" r="1.53" fill="#6f5410"/><circle cx="4.01" cy="56.55" r="1.22" fill="#6f5410"/><circle cx="53.70" cy="46.35" r="1.23" fill="#6f5410"/><circle cx="60.78" cy="39.40" r="1.59" fill="#6f5410"/><circle cx="44.82" cy="39.27" r="1.70" fill="#6f5410"/><circle cx="58.60" cy="4.18" r="1.74" fill="#6f5410"/><circle cx="8.55" cy="0.40" r="1.35" fill="#6f5410"/><circle cx="13.52" cy="58.31" r="1.54" fill="#6f5410"/><circle cx="4.28" cy="51.12" r="1.19" fill="#6f5410"/><circle cx="42.68" cy="4.17" r="2.17" fill="#6f5410"/><circle cx="44.88" cy="34.77" r="3.36" fill="#5a440d"/><circle cx="56.86" cy="14.96" r="3.61" fill="#5a440d"/><circle cx="30.07" cy="18.65" r="3.41" fill="#5a440d"/><circle cx="27.95" cy="14.25" r="4.45" fill="#5a440d"/><circle cx="1.79" cy="24.16" r="3.42" fill="#5a440d"/><circle cx="54.17" cy="45.95" r="4.02" fill="#5a440d"/><circle cx="30.10" cy="56.15" r="2.88" fill="#5a440d"/><circle cx="10.04" cy="43.28" r="3.76" fill="#5a440d"/><circle cx="19.46" cy="38.60" r="3.23" fill="#5a440d"/><circle cx="39.95" cy="23.28" r="3.44" fill="#5a440d"/><circle cx="36.67" cy="56.63" r="2.78" fill="#5a440d"/><circle cx="18.63" cy="58.81" r="3.63" fill="#5a440d"/><circle cx="6.87" cy="0.89" r="4.45" fill="#5a440d"/><circle cx="13.64" cy="50.79" r="2.93" fill="#5a440d"/><circle cx="9.42" cy="20.51" r="2.53" fill="#5a440d"/><circle cx="4.54" cy="14.48" r="1.97" fill="#9f843e"/><circle cx="49.31" cy="44.53" r="1.51" fill="#9f843e"/><circle cx="26.94" cy="24.00" r="1.93" fill="#9f843e"/><circle cx="37.38" cy="13.27" r="1.47" fill="#9f843e"/><circle cx="19.89" cy="21.63" r="1.54" fill="#9f843e"/><circle cx="39.31" cy="49.13" r="1.21" fill="#9f843e"/><circle cx="7.39" cy="32.85" r="1.60" fill="#9f843e"/><circle cx="14.65" cy="36.64" r="1.88" fill="#9f843e"/></svg>
