<?xml version="1.0" encoding="UTF-8" standalone="no"?>
<svg xmlns="http://www.w3.org/2000/svg" viewBox="0 0 64 64" width="64" height="64" shape-rendering="crispEdges">
<rect x="0.00" y="0.00" width="64.00" height="64.00" fill="#8b6914"/><circle cx="60.46" cy="35.89" r="1.71" fill="#6f5410"/><circle cx="47.79" cy="22.83" r="1.41" fill="#6f5410"/><circle cx="19.80" cy="62.96" r="1.53" fill="#6f5410"/><circle cx="9.65" cy="52.14" r="0.95" fill="#6f5410"/><circle cx="42.25" cy="0.48" r="1.26" fill="#6f5410"/><circle cx="48.71" cy="17.77" r="1.33" fill="#6f5410"/><circle cx="8.56" cy="58.88" r="1.39" fill="#6f5410"/><circle cx="7.89" cy="10.37" r="1.25" fill="#6f5410"/><circle cx="26.65" cy="51.55" r="1.36" fill="#6f5410"/><circle cx="9.10" cy="20.93" r="1.59" fill="#6f5410"/><circle cx="51.91" cy="61.40" r="1.46" fill="#6f5410"/><circle cx="21.06" cy="6.13" r="2.05" fill="#6f5410"/><circle cx="2.38" cy="56.91" r="2.00" fill="#6f5410"/><circle cx="14.57" cy="40.35" r="1.02" fill="#6f5410"/><circle cx="21.93" cy="32.53" r="1.96" fill="#6f5410"/><circle cx="27.63" cy="5.06" r="1.67" fill="#6f5410"/><circle cx="28.62" cy="52.05" r="1.23" fill="#6f5410"/><circle cx="46.50" cy="42.95" r="2.07" fill="#6f5410"/><circle cx="27.76" cy="47.17" r="1.59" fill="#6f5410"/><circle cx="34.96" cy="6.49" r="1.13" fill="#6f5410"/><circle cx="48.66" cy="5.58" r="0.88" fill="#6f5410"/><circle cx="40.46" cy="15.75" r="2.10" fill="#6f5410"/><circle cx="6.32" cy="15.39" r="1.59" fill="#6f5410"/><circle cx="18.57" cy="32.91" r="1.02" fill="#6f5410"/><circle cx="62.66" cy="16.30" r="1.04" fill="#6f5410"/><circle cx="51.68" cy="39.83" r="0.81" fill="#6f5410"/><circle cx="42.30" cy="7.58" r="1.88" fill="#6f5410"/><circle cx="50.67" cy="57.54" r="2.00" fill="#6f5410"/><circle cx="27.60" cy="25.87" r="1.76" fill="#6f5410"/><circle cx="62.09" cy="16.47" r="1.85" fill="#6f5410"/><circle cx="27.37" cy="13.62" r="2.10" fill="#6f5410"/><circle cx="61.18" cy="39.41" r="1.71" fill="#6f5410"/><circle cx="47.31" cy="17.78" r="1.57" fill="#6f5410"/><circle cx="52.61" cy="12.34" r="1.66" fill="#6f5410"/><circle cx="52.55" cy="5.93" r="2.08" fill="#6f5410"/><circle cx="46.50" cy="59.88" r="1.69" fill="#6f5410"/><circle cx="16.27" cy="39.17" r="2.03" fill="#6f5410"/><circle cx="41.47" cy="51.01" r="1.00" fill="#6f5410"/><circle cx="58.20" cy="54.75" r="1.35" fill="#6f5410"/><circle cx="9.11" cy="63.15" r="1.81" fill="#6f5410"/><circle cx="18.80" cy="6.46" r="0.86" fill="#6f5410"/><circle cx="35.17" cy="37.84" r="2.11" fill="#6f5410"/><circle cx="32.17" cy="8.36" r="1.99" fill="#6f5410"/><circle cx="19.95" cy="16.40" r="1.83" fill="#6f5410"/><circle cx="57.65" cy="25.44" r="1.47" fill="#6f5410"/><circle cx="55.80" cy="49.85" r="0.99" fill="#6f5410"/><circle cx="34.42" cy="54.71" r="1.19" fill="#6f5410"/><circle cx="7.43" cy="37.59" r="2.16" fill="#6f5410"/><circle cx="34.43" cy="23.35" r="2.01" fill="#6f5410"/><circle cx="62.22" cy="0.69" r="1.89" fill="#6f5410"/><circle cx="28.98" cy="11.78" r="2.15" fill="#6f5410"/><circle cx="62.19" cy="51.05" r="2.17" fill="#6f5410"/><circle cx="55.33" cy="15.24" r="1.40" fill="#6f5410"/><circle cx="22.03" cy="28.41" r="1.11" fill="#6f5410"/><circle cx="36.20" cy="24.91" r="2.14" fill="#6f5410"/><circle cx="31.53" cy="8.83" r="1.54" fill="#6f5410"/><circle cx="24.19" cy="21.10" r="1.48" fill="#6f5410"/><circle cx="22.62" cy="45.19" r="1.77" fill="#6f5410"/><circle cx="36.87" cy="5.53" r="1.09" fill="#6f5410"/><circle cx="47.75" cy="37.00" r="1.98" fill="#6f5410"/><circle cx="63.07" cy="58.74" r="3.30" fill="#5a440d"/><circle cx="30.19" cy="56.51" r="2.50" fill="#5a440d"/><circle cx="5.65" cy="0.01" r="4.15" fill="#5a440d"/><circle cx="46.43" cy="56.68" r="2.64" fill="#5a440d"/><circle cx="41.25" cy="20.50" r="3.72" fill="#5a440d"/><circle cx="0.42" cy="13.29" r="2.79" fill="#5a440d"/><circle cx="11.24" cy="45.08" r="3.90" fill="#5a440d"/><circle cx="21.05" cy="62.56" r="3.77" fill="#5a440d"/><circle cx="41.00" cy="57.54" r="2.68" fill="#5a440d"/><circle cx="36.41" cy="5.35" r="4.27" fill="#5a440d"/><circle cx="34.68" cy="2.32" r="4.43" fill="#5a440d"/><circle cx="49.42" cy="13.62" r="2.79" fill="#5a440d"/><circle cx="16.01" cy="8.41" r="4.39" fill="#5a440d"/><circle cx="57.98" cy="36.65" r="3.67" fill="#5a440d"/><circle cx="55.70" cy="50.24" r="3.26" fill="#5a440d"/><circle cx="24.47" cy="47.35" r="1.45" fill="#9f843e"/><circle cx="13.55" cy="28.39" r="1.39" fill="#9f843e"/><circle cx="28.54" cy="7.55" r="1.68" fill="#9f843e"/><circle cx="5.25" cy="25.68" r="1.47" fill="#9f843e"/><circle cx="35.42" cy="61.46" r="1.65" fill="#9f843e"/><circle cx="13.11" cy="14.94" r="1.95" fill="#9f843e"/><circle cx="54.93" cy="56.50" r="1.61" fill="#9f843e"/><circle cx="36.91" cy="49.73" r="1.47" fill="#9f843e"/></svg>
